<svg xmlns="http://www.w3.org/2000/svg" viewBox="0 0 62.47 62.41"><defs><style>.cls-1{fill:#fff;}</style></defs><title>slack</title><g id="Layer_2" data-name="Layer 2"><g id="Layer_1-2" data-name="Layer 1"><path class="cls-1" d="M62.29,36.71A5.8,5.8,0,0,0,55,32.66c-1.34.33-2.68.64-4,1L47.69,19.89h0c1.06-.27,2.12-.52,3.17-.83A5.79,5.79,0,0,0,55,13a5.71,5.71,0,0,0-5.1-5c-1.71-.19-3.29.44-4.89.87l-.14-.05c-.33-1.44-.64-2.88-1-4.31A5.8,5.8,0,0,0,37,.16a5.8,5.8,0,0,0-4.13,7c.33,1.47.67,2.94,1,4.41h0c-.18.06-.36.13-.54.18L20.08,15,19.94,15h0c-.25-1.09-.48-2.19-.76-3.28A5.67,5.67,0,0,0,8.11,14.15c.23,1.2.54,2.38.81,3.57v.05c-1.49.37-3,.72-4.48,1.1A5.79,5.79,0,0,0,.15,25.71a5.76,5.76,0,0,0,7,4.2c1.44-.33,2.87-.7,4.3-1h0c.36.15.35.5.43.8.58,2.39,1.17,4.78,1.74,7.17.45,1.89,1,3.76,1.33,5.69h0c-1.09.28-2.19.53-3.27.83a5.77,5.77,0,0,0-4.25,5.75,5.7,5.7,0,0,0,4.66,5.31c2,.41,3.73-.45,5.56-.84h0l.16.06A25.18,25.18,0,0,0,19,58.77a5.56,5.56,0,0,0,6.83,3.42,5.62,5.62,0,0,0,4-6.78c-.33-1.5-.72-3-1.08-4.49h0a.13.13,0,0,0,0-.1h0l13.75-3.39a.3.3,0,0,0,.14,0c.26,1.09.49,2.19.77,3.27A5.67,5.67,0,0,0,54.5,48.22c-.23-1.16-.53-2.31-.8-3.46h0l0,0c1.37-.33,2.75-.65,4.11-1A5.8,5.8,0,0,0,62.29,36.71Zm-23.55-.33c-3.9.94-7.78,2-11.7,2.88a2.32,2.32,0,0,0-.91.35A2.17,2.17,0,0,0,26,38.43c-1-3.83-1.85-7.68-2.82-11.51a2.66,2.66,0,0,0-.23-.73A3,3,0,0,0,24,26c3.9-1,7.79-2,11.68-2.92a2.42,2.42,0,0,0,.86-.32,2.71,2.71,0,0,0,.1,1.1Q38,29.83,39.5,35.75a1.39,1.39,0,0,0,.2.5A2.66,2.66,0,0,0,38.74,36.38Z"/></g></g></svg>