<?xml version="1.0" encoding="utf-8"?>
<!-- Generator: Adobe Illustrator 21.0.0, SVG Export Plug-In . SVG Version: 6.00 Build 0)  -->
<svg version="1.1" id="Layer_1" xmlns="http://www.w3.org/2000/svg" xmlns:xlink="http://www.w3.org/1999/xlink" x="0px" y="0px"
	 viewBox="0 0 100 100" style="enable-background:new 0 0 100 100;" xml:space="preserve">
<style type="text/css">
	.st0{opacity:0.5;}
	.st1{fill:#FFFFFF;}
</style>
<g class="st0">
	<path class="st1" d="M37.5,31.8c4.9-1.2,9.9-2.5,14.8-3.7c0.2-0.1,0.4-0.1,0.6-0.2c0.1-0.1,0.2-0.1,0.3,0c0.5,0.9,0.5,1.9,0.8,2.9
		c0.7,2.7,1.3,5.3,1.9,8c0.1,0.5,0.3,0.9,0.2,1.4c0,0.1-0.1,0.2-0.2,0.3c-0.3,0.2-0.7,0.3-1,0.4c-4.4,1.1-8.7,2.2-13.1,3.3
		c-0.4,0.1-0.8,0.2-1.3,0.2c-0.1,0-0.2-0.1-0.3-0.2c-0.3-0.3-0.4-0.8-0.5-1.2c-0.7-3.3-1.6-6.5-2.4-9.7
		C37.3,32.7,37.1,32.2,37.5,31.8z"/>
	<path class="st1" d="M62.7,68.1c-5.1,1.3-10.3,2.5-15.4,3.8c-0.4-0.1-0.5-0.4-0.5-0.7c-0.9-3.6-1.8-7.3-2.7-10.9c0-0.2,0-0.4,0-0.5
		c0-0.1,0.1-0.2,0.2-0.3c0.3-0.3,0.7-0.4,1.1-0.4c4.4-1,8.7-2.2,13.1-3.2c0.4-0.1,0.8-0.2,1.2-0.1c0.1,0,0.2,0.1,0.3,0.2
		c0.6,1.2,0.8,2.5,1.1,3.7c0.6,2.4,1.2,4.9,1.8,7.3C62.8,67.2,63,67.7,62.7,68.1z"/>
	<path class="st1" d="M59.8,55.8c-0.1,0-0.1,0-0.2,0c-0.3-0.2-0.3-0.5-0.4-0.7c-1.1-4.4-2.2-8.8-3.2-13.3c-0.1-0.5-0.2-0.9-0.1-1.4
		c0-0.1,0-0.1,0.1-0.2c0.2-0.3,0.5-0.4,0.8-0.4c3.6-0.9,7.1-1.8,10.7-2.7c0.2-0.1,0.4-0.1,0.6-0.1c0.1,0,0.2,0.1,0.3,0.2
		c1.2,5.1,2.5,10.3,3.7,15.4c0,0.1,0,0.2-0.1,0.3c-3.8,1.1-7.7,2-11.6,2.9C60.3,55.9,60,55.9,59.8,55.8z"/>
	<path class="st1" d="M44.2,59.5c0,0.1,0,0.1-0.1,0.2C44,59.9,43.8,60,43.5,60c-3.9,0.9-7.7,2-11.6,2.8c-0.1,0-0.2-0.1-0.3-0.2
		c-0.3-2.2-1-4.3-1.5-6.4c-0.6-2.7-1.3-5.4-1.9-8c-0.1-0.3-0.1-0.7-0.5-0.9c0-0.2,0.1-0.3,0.3-0.4c3.7-1,7.5-1.8,11.2-2.8
		c0.3-0.1,0.7-0.2,1.1-0.1c0.1,0,0.1,0,0.2,0c0.3,0.3,0.3,0.6,0.4,1c1.1,4.3,2.1,8.6,3.2,12.9C44.3,58.5,44.5,59,44.2,59.5z"/>
	<path class="st1" d="M59.8,55.8c3.4-0.9,6.8-1.8,10.2-2.6c0.7-0.2,1.4-0.5,2.1-0.4c0.5,0.2,0.5,0.7,0.6,1.2
		c0.7,3.3,1.6,6.5,2.4,9.8c0.1,0.4,0.3,0.8,0.1,1.3l0,0.1c-0.3,0.3-0.7,0.4-1.2,0.5c-3.3,0.8-6.6,1.7-9.9,2.5
		c-0.4,0.1-0.8,0.3-1.3,0c-0.1,0-0.1,0-0.2-0.1c-0.4-2.4-1.1-4.7-1.6-7C60.7,59.3,60.1,57.6,59.8,55.8z"/>
	<path class="st1" d="M40.4,44.1c-2.4,0.9-5,1.3-7.4,1.9c-1.6,0.4-3.2,1-4.9,1.1c-0.3-0.2-0.4-0.6-0.5-0.9
		c-0.9-3.4-1.7-6.9-2.5-10.4c-0.1-0.3-0.1-0.6,0-1l0-0.1c0.3-0.4,0.7-0.5,1.1-0.6c3.4-0.9,6.8-1.7,10.2-2.5c0.3-0.1,0.7-0.2,1.1,0
		c0.1,0,0.1,0,0.2,0.1c0.5,3,1.4,5.8,2.1,8.7C39.8,41.7,40.1,42.9,40.4,44.1z"/>
	<path class="st1" d="M31.9,62.7c3-1,6.2-1.6,9.2-2.4c1-0.3,2-0.5,3-0.7c1,4.1,2,8.2,3.1,12.3c0,0,0,0.1,0,0.1
		c-0.2,0.3-0.5,0.3-0.9,0.4c-3.5,0.9-7.1,1.7-10.6,2.6c-0.3,0.1-0.6,0.1-0.9,0c-0.1,0-0.1,0-0.2-0.1c-0.3-0.2-0.4-0.6-0.5-0.9
		c-0.7-3.4-1.7-6.7-2.4-10C31.8,63.6,31.6,63.1,31.9,62.7z"/>
	<path class="st1" d="M68.3,37.1c-4.1,1.1-8.2,2.1-12.3,3c-1-4.1-2.1-8.1-2.9-12.3c0.2-0.4,0.6-0.5,1-0.6c3.4-0.8,6.8-1.7,10.2-2.5
		c0.4-0.1,0.7-0.1,1.1-0.1c0.1,0,0.1,0,0.2,0.1c0.3,0.3,0.4,0.7,0.5,1.1c0.7,3.2,1.6,6.4,2.3,9.7C68.4,36.1,68.6,36.6,68.3,37.1z"/>
	<path class="st1" d="M25,34.8c1,4.1,2,8.2,3,12.3c-0.1,0.1-0.1,0.1-0.2,0.2c-1.6,0.4-3.2,0.8-4.8,1.2c-3.5,0.8-7-1.3-7.8-4.7
		c-0.8-3.3,1.4-6.8,4.8-7.7C21.6,35.6,23.3,35.3,25,34.8z"/>
	<path class="st1" d="M34.9,75.1c2.7-0.9,5.6-1.4,8.4-2.2c1.3-0.3,2.5-0.8,3.9-0.9c0.4,1.7,0.8,3.3,1.2,5c0.7,3.4-1.1,6.7-4.4,7.6
		c-3.1,0.9-6.4-0.5-7.7-3.8C35.6,79,35.2,77,34.9,75.1z"/>
	<path class="st1" d="M65.3,24.8c-3.7,0.9-7.3,1.9-11,2.8c-0.4,0.1-0.8,0.2-1.2,0.3c-0.1,0-0.1,0-0.2-0.1c-0.4-1.6-0.8-3.3-1.1-4.9
		c-0.8-3.5,1.3-7,4.6-7.8c3.4-0.8,6.9,1.3,7.8,4.9C64.6,21.6,64.9,23.2,65.3,24.8z"/>
	<path class="st1" d="M75.2,65c-0.9-3.8-1.9-7.6-2.8-11.4c-0.1-0.3-0.2-0.6-0.3-0.9c0-0.1,0-0.1,0-0.2c1.5-0.4,3-0.7,4.5-1.1
		c3.7-0.9,7.2,1,8.1,4.5c0.9,3.5-1.3,6.9-5,7.8C78.3,64.3,76.7,64.7,75.2,65z"/>
	<path class="st1" d="M37.3,31.7c-3.5,0.9-6.9,1.8-10.4,2.6c-0.7,0.2-1.3,0.3-2,0.4c-0.3-1.3-0.6-2.7-0.9-4
		c-0.7-3.4,1.5-6.7,4.8-7.5c3.4-0.8,6.7,1.3,7.6,4.7C36.8,29.3,37.1,30.5,37.3,31.7z"/>
	<path class="st1" d="M62.8,68.1c4.1-1,8.2-2,12.4-3.1c0.3,1.3,0.6,2.6,0.9,3.9c0.7,3.5-1.5,6.8-4.8,7.6c-3.4,0.7-6.7-1.3-7.6-4.7
		C63.4,70.6,63.1,69.4,62.8,68.1z"/>
	<path class="st1" d="M31.9,62.7c0.8,3.4,1.6,6.9,2.4,10.3c0.2,0.7,0.3,1.3,0.4,2c-2.1,0.4-4,1.4-6.2,0.9c-3-0.6-5.1-3.1-5.2-5.9
		c-0.1-3,1.8-5.6,4.8-6.4c1.2-0.3,2.4-0.6,3.7-0.9C31.8,62.6,31.8,62.7,31.9,62.7z"/>
	<path class="st1" d="M68.3,37.1c-0.9-3.8-1.8-7.6-2.7-11.4c-0.1-0.3-0.1-0.6-0.1-0.8c1.8-0.5,3.6-1.2,5.5-1c3,0.3,5.4,2.7,5.7,5.6
		c0.3,3.1-1.7,5.9-4.7,6.8c-1.2,0.3-2.4,0.6-3.6,0.9C68.4,37.2,68.3,37.2,68.3,37.1z"/>
</g>
</svg>
