<?xml version="1.0" encoding="utf-8"?>
<!-- Generator: Adobe Illustrator 21.0.0, SVG Export Plug-In . SVG Version: 6.00 Build 0)  -->
<svg version="1.1" id="Layer_1" xmlns="http://www.w3.org/2000/svg" xmlns:xlink="http://www.w3.org/1999/xlink" x="0px" y="0px"
	 viewBox="0 0 100 100" style="enable-background:new 0 0 100 100;" xml:space="preserve">
<style type="text/css">
	.st0{opacity:0.5;}
	.st1{fill:#FFFFFF;}
</style>
<g id="Icons_1_" sketch:type="MSPage" class="st0">
	<g id="Black_1_" transform="translate(-300.000000, -204.000000)" sketch:type="MSArtboardGroup">
		<g id="Line-1" transform="translate(200.000000, 200.000000)" sketch:type="MSLayerGroup">
			<path id="Twitter" sketch:type="MSShapeGroup" class="st1" d="M185,31.1c-2.6,1.2-5.4,2-8.4,2.4c3-1.8,5.3-4.8,6.4-8.3
				c-2.8,1.7-5.9,3-9.3,3.6c-2.7-2.9-6.5-4.7-10.7-4.7c-8.1,0-14.6,6.7-14.6,15c0,1.2,0.1,2.3,0.4,3.4c-12.1-0.6-22.9-6.6-30.1-15.6
				c-1.3,2.2-2,4.8-2,7.5c0,5.2,2.6,9.8,6.5,12.5c-2.4-0.1-4.6-0.8-6.6-1.9v0.2c0,7.3,5,13.3,11.7,14.7c-1.2,0.4-2.5,0.5-3.8,0.5
				c-0.9,0-1.9-0.1-2.7-0.3c1.9,5.9,7.2,10.3,13.6,10.4c-5,4-11.3,6.4-18.1,6.4c-1.2,0-2.3-0.1-3.5-0.2c6.5,4.2,14.1,6.7,22.4,6.7
				c26.9,0,41.5-22.8,41.5-42.6c0-0.7,0-1.3,0-1.9C180.6,36.7,183,34.1,185,31.1"/>
		</g>
	</g>
</g>
</svg>
