<svg xmlns="http://www.w3.org/2000/svg" viewBox="0 0 74.03 61.69"><defs><style>.cls-1{fill:#fff;}</style></defs><title>twitter</title><g id="Layer_2" data-name="Layer 2"><g id="Layer_1-2" data-name="Layer 1"><g id="Icons"><g id="Black"><g id="Line-1"><path id="Twitter" class="cls-1" d="M74,7.3a29.66,29.66,0,0,1-8.72,2.45A15.54,15.54,0,0,0,72,1.14a29.91,29.91,0,0,1-9.65,3.77A15,15,0,0,0,51.25,0,15.38,15.38,0,0,0,36.07,15.57a15.89,15.89,0,0,0,.39,3.55A42.76,42.76,0,0,1,5.15,2.84,15.86,15.86,0,0,0,3.1,10.68a15.68,15.68,0,0,0,6.76,13A14.91,14.91,0,0,1,3,21.7v.19A15.48,15.48,0,0,0,15.16,37.16a14.48,14.48,0,0,1-4,.55,14.75,14.75,0,0,1-2.86-.28A15.25,15.25,0,0,0,22.49,48.24,30,30,0,0,1,3.62,54.91,30.4,30.4,0,0,1,0,54.7a42.28,42.28,0,0,0,23.28,7c27.94,0,43.21-23.73,43.21-44.31,0-.68,0-1.35,0-2A31.17,31.17,0,0,0,74,7.3"/></g></g></g></g></g></svg>