<?xml version="1.0" encoding="utf-8"?>
<!-- Generator: Adobe Illustrator 21.0.0, SVG Export Plug-In . SVG Version: 6.00 Build 0)  -->
<svg version="1.1" id="Layer_1" xmlns="http://www.w3.org/2000/svg" xmlns:xlink="http://www.w3.org/1999/xlink" x="0px" y="0px"
	 viewBox="0 0 100 100" style="enable-background:new 0 0 100 100;" xml:space="preserve">
<style type="text/css">
	.st0{opacity:0.5;}
	.st1{fill:#FFFFFF;}
</style>
<g id="Icons" sketch:type="MSPage" class="st0">
	<g id="Black" transform="translate(-200.000000, -408.000000)" sketch:type="MSArtboardGroup">
		<g id="Line-3" transform="translate(200.000000, 400.000000)" sketch:type="MSLayerGroup">
			<path id="Youtube" sketch:type="MSShapeGroup" class="st1" d="M41.6,68.4l0-23.2l22.1,11.6L41.6,68.4z M90.2,41.2
				c0,0-0.8-5.7-3.3-8.2c-3.1-3.3-6.6-3.3-8.2-3.5c-11.5-0.8-28.6-0.8-28.6-0.8h0c0,0-17.2,0-28.6,0.8c-1.6,0.2-5.1,0.2-8.2,3.5
				c-2.5,2.5-3.3,8.2-3.3,8.2s-0.8,6.7-0.8,13.3v6.3c0,6.7,0.8,13.3,0.8,13.3s0.8,5.7,3.3,8.2c3.1,3.3,7.2,3.2,9,3.5
				c6.5,0.6,27.8,0.8,27.8,0.8s17.2,0,28.6-0.9c1.6-0.2,5.1-0.2,8.2-3.5c2.5-2.5,3.3-8.2,3.3-8.2S91,67.5,91,60.8v-6.3
				C91,47.9,90.2,41.2,90.2,41.2L90.2,41.2z"/>
		</g>
	</g>
</g>
</svg>
