<svg xmlns="http://www.w3.org/2000/svg" viewBox="0 0 81.84 57.97"><defs><style>.cls-1{fill:#fff;}</style></defs><title>youtube</title><g id="Layer_2" data-name="Layer 2"><g id="Layer_1-2" data-name="Layer 1"><g id="Icons"><g id="Black"><g id="Line-3"><path id="Youtube" class="cls-1" d="M32.47,39.68V16.52L54.58,28.14ZM81,12.5s-.8-5.68-3.25-8.18C74.66,1,71.17,1,69.57.83,58.12,0,40.94,0,40.94,0h0S23.72,0,12.27.83C10.67,1,7.18,1,4.07,4.32,1.62,6.83.82,12.5.82,12.5A125.56,125.56,0,0,0,0,25.84V32.1A125.49,125.49,0,0,0,.82,45.44s.8,5.68,3.25,8.18c3.12,3.28,7.2,3.18,9,3.52,6.55.63,27.83.83,27.83.83s17.2,0,28.65-.86c1.6-.19,5.09-.21,8.2-3.49,2.45-2.5,3.25-8.18,3.25-8.18a125.49,125.49,0,0,0,.82-13.34V25.84A125.56,125.56,0,0,0,81,12.5Z"/></g></g></g></g></g></svg>