<svg xmlns="http://www.w3.org/2000/svg" viewBox="0 0 164.1 117.92"><defs><style>.cls-1{fill:#fff;fill-rule:evenodd;}</style></defs><title>osss</title><g id="Layer_2" data-name="Layer 2"><g id="Site"><path class="cls-1" d="M55,28.52a33,33,0,0,1,16.39,4.36A39.09,39.09,0,0,1,86.53,47.76a34.46,34.46,0,0,1,4.62,12,13.69,13.69,0,0,1-.12,5.8c-.77,2.87-3.17,3.59-5.77,3.08a1.49,1.49,0,0,1-1.38-1.41A34.22,34.22,0,0,0,73.37,49a33.5,33.5,0,0,0-15.59-8.53A19.39,19.39,0,0,0,45.3,41.8a17.71,17.71,0,0,0-7,5.06C35.82,50,35.6,53.5,36.81,57.21a22.68,22.68,0,0,0,6.52,9.64,34.69,34.69,0,0,0,11.92,7.58c3.12,1.11,6.28,1.52,9.4-.08a8.84,8.84,0,0,0,1.73-1.13,1.67,1.67,0,0,0,.6-2.38,44.5,44.5,0,0,0-2.63-4.56,6,6,0,0,1-.92-2.92A3.36,3.36,0,0,1,66.56,60c5.11-.48,8.7,3.78,9.57,7.51s-.52,6.65-2.14,9.65a17.2,17.2,0,0,1-7.49,7.46,16.79,16.79,0,0,1-6.4,1.73,31.39,31.39,0,0,1-12-1.47A29.13,29.13,0,0,1,36.7,77.61a49.86,49.86,0,0,1-8.11-10.83,25.47,25.47,0,0,1-2.32-7.14,27.6,27.6,0,0,1-.73-6.53c.11-7.29,2.36-13.53,9-17.57a51,51,0,0,1,11.73-5.67A30.41,30.41,0,0,1,55,28.52Z"/><path class="cls-1" d="M149.42,89c-5.68-.06-11.33.63-17,.6-4.27,0-8.56.14-12.74-1a9.4,9.4,0,0,1-4.93-2.92,5.43,5.43,0,0,1-1.27-4.9,14.32,14.32,0,0,1,4.14-7.55,3.37,3.37,0,0,1,4.81.21,1.06,1.06,0,0,1,.32,1c-.09.46-.11.93-.21,1.39-.4,1.89.49,3.27,1.76,4.5.61.6,1.43.36,2.15.42,5.09.43,10.19.91,15.31.83a34.8,34.8,0,0,0,10.65-1.47c2.66-.89,3.55-2.66,2.56-5.26a14.66,14.66,0,0,0-6-6.82c-3.49-2.34-7.2-4.32-10.81-6.45-6.82-4-13.7-8-20.48-12.06a14.17,14.17,0,0,1-6.43-7.52c-1.42-4.19-.17-8.62,4.14-11.63a27.94,27.94,0,0,1,9.74-4.28c4.81-1.13,9.52-2.58,14.31-3.75a22.33,22.33,0,0,1,8.49-.44,4.82,4.82,0,0,1,4,5.72,9.07,9.07,0,0,1-1.9,4.13,5.28,5.28,0,0,1-7.16,1.2,9,9,0,0,0-7.59-1.25,81.65,81.65,0,0,0-11.2,3,14.3,14.3,0,0,0-2.75,1.42c-2.1,1.38-2.3,3.09-.63,4.94s3.58,3.07,5.28,4.7c3.33,3.17,7.54,4.73,11.61,6.55a89.1,89.1,0,0,1,15.75,8.71c4.06,2.91,7.58,6.36,9.55,11,1.51,3.57,1.86,7.3-.23,10.75A12.23,12.23,0,0,1,152.06,89C151.18,89,150.3,89,149.42,89Z"/><path class="cls-1" d="M88.26,106.49a13.09,13.09,0,0,1-10.56-5.32,17.77,17.77,0,0,1-3.9-12.55,2.37,2.37,0,0,1,.79-1.74,16.1,16.1,0,0,1,2.93-2.36c1.28-.71,2.51-.8,3.56.86a65.53,65.53,0,0,1,5.68,10.23,19.77,19.77,0,0,1,.81,2.31,20.25,20.25,0,0,0,2,4.86,1.59,1.59,0,0,1,.12.26C90.59,105.81,90.4,106.65,88.26,106.49Z"/><path class="cls-1" d="M9.3,29.46c6,.25,10.87,2.63,14.38,7.62a1.67,1.67,0,0,1,.26,1.32,14.92,14.92,0,0,1-1,4.48,1.81,1.81,0,0,1-2.44,1.17C16.07,42.75,11.59,41.47,7.6,39a33.85,33.85,0,0,0-5.88-3.12A3.27,3.27,0,0,1,.58,35a1.46,1.46,0,0,1,0-2.3A11.27,11.27,0,0,1,5.1,30,12.4,12.4,0,0,1,9.3,29.46Z"/><path class="cls-1" d="M54.71,20.06A42.5,42.5,0,0,1,56,8.14a36.17,36.17,0,0,0,1.16-6.07A3.66,3.66,0,0,1,57.62.82,1.42,1.42,0,0,1,59.78.28a11.64,11.64,0,0,1,5.89,8.14,18.44,18.44,0,0,1-2.5,14.18,4.24,4.24,0,0,1-3.58,2,14.74,14.74,0,0,1-3.3,0,1.63,1.63,0,0,1-1.58-1.74C54.69,21.95,54.71,21,54.71,20.06Z"/><path class="cls-1" d="M31.58,81.5a4.36,4.36,0,0,1,2.56.52c1.35.73,1.54,1.94,1.33,3.31a15,15,0,0,1-3.26,7.39c-3.15,3.87-7.36,6.42-11.41,9.16-.79.53-1.52,1.31-2.59.49A3.09,3.09,0,0,1,17,99.18a15.91,15.91,0,0,1,1.88-5c1.63-3,3.59-5.87,5.48-8.74A8.48,8.48,0,0,1,31.58,81.5Z"/><path class="cls-1" d="M109.41,86.73a24.53,24.53,0,0,1-7.53-2c-2.38-1-4.72-2.05-7.07-3.09a13.55,13.55,0,0,1-1.46-.84C90.9,79.3,90.7,77,91.66,74.61a2.28,2.28,0,0,1,.74-1,12.07,12.07,0,0,1,5.38-2.56c1-.15,1.85.46,2.76.75,2.7.86,4.43,2.94,6.24,5a46.14,46.14,0,0,0,4,4.5c.17.14.35.34.54.36,1.24.14,1.05,1,.91,1.79-.08.43-.1.87-.14,1.31C112,86.22,111.42,86.73,109.41,86.73Z"/><path class="cls-1" d="M15.53,70.66a46.91,46.91,0,0,1-6.55-1C8,69.47,7,69.18,6,69a2.56,2.56,0,0,0-1.48,0c-1,.55-1.46,0-2-.76a5,5,0,0,1-1.17-2.72,1.37,1.37,0,0,1,.65-1.25,26.19,26.19,0,0,1,8.35-3.61c2.51-.68,5-1.38,7.56-1.88,3-.59,5.41,0,6.17,3.77a6.29,6.29,0,0,1-.63,3.17c-.08.27-.25.51-.35.77C22,69.78,19.24,70.37,15.53,70.66Z"/><path class="cls-1" d="M90.45,12.1A11.62,11.62,0,0,1,84.5,23a9.18,9.18,0,0,0-3,3.83,20.36,20.36,0,0,1-2,3.71A1.62,1.62,0,0,1,77,30.8c-.44-.36-.83-.78-1.25-1.15a6.47,6.47,0,0,1-1.16-8,22,22,0,0,1,5.29-6.08A94.64,94.64,0,0,1,89,8.95c.91-.62,1.2-.45,1.31.7C90.39,10.46,90.4,11.28,90.45,12.1Z"/><path class="cls-1" d="M46.59,109.2a9.18,9.18,0,0,1,1.63-5.9,11,11,0,0,0,1.5-5.64c.08-1.16,0-2.33.07-3.49.06-1.52.61-2.08,2.05-1.84,3,.5,5.52,1.75,6.15,5.17a13.51,13.51,0,0,1-.89,7,62.08,62.08,0,0,1-5.44,10.84c-.42.7-.87,1.38-1.26,2.09s-.72.56-1.05,0C47.74,115,46.44,112.45,46.59,109.2Z"/><path class="cls-1" d="M105.44,50.39a54.18,54.18,0,0,1,10.81,1.34c1.07.23,2.15.46,3.23.62.77.11.72.49.39,1-2.54,3.53-5.79,5.9-10.29,6.13a8.44,8.44,0,0,1-2.61-.27,9.87,9.87,0,0,0-6.17.59,18.12,18.12,0,0,1-3.61,1.05c-.93.14-1.75-.23-1.86-1.13-.23-1.87-.39-3.77.54-5.54a6.62,6.62,0,0,1,4.53-3.24A16.84,16.84,0,0,1,105.44,50.39Z"/><path class="cls-1" d="M41,19.71c-.1,3.55-.73,6.21-2.71,8.42-.53.59-.83.66-1.35-.06-2.3-3.14-4.34-6.45-6.59-9.62A53.2,53.2,0,0,0,24,10.69a1,1,0,0,1-.19-1.42,6.58,6.58,0,0,1,4.86-2.87,1.38,1.38,0,0,1,1.29.44c2.15,2.6,5,4.41,7.61,6.41C39.9,15,41.17,17.38,41,19.71Z"/><path class="cls-1" d="M95.35,42.63a15.13,15.13,0,0,1-4.5-.55c-1.76-.55-2.36-1.76-2.1-3.55a6.13,6.13,0,0,1,4.3-5.09c2.33-.9,4.8-1.23,7.18-1.89,1.24-.35,2.45-.76,3.65-1.23a4.73,4.73,0,0,1,2.74-.31,1.94,1.94,0,0,1,1.36.88c0,.05.06.12.11.15,1.4.81,1,2.16,1.06,3.39a.63.63,0,0,1-.66.74,6.77,6.77,0,0,0-3.8,1.92c-1.46,1.24-2.84,2.57-4.29,3.81A6.53,6.53,0,0,1,95.35,42.63Z"/></g></g></svg>