<?xml version="1.0" standalone="no"?>
<!DOCTYPE svg PUBLIC "-//W3C//DTD SVG 20010904//EN"
 "http://www.w3.org/TR/2001/REC-SVG-20010904/DTD/svg10.dtd">
<svg version="1.0" xmlns="http://www.w3.org/2000/svg"
 width="1000.000000pt" height="1000.000000pt" viewBox="0 0 1000.000000 1000.000000"
 preserveAspectRatio="xMidYMid meet">
<metadata>
Created by potrace 1.11, written by Peter Selinger 2001-2013
</metadata>
<g transform="translate(0.000000,1000.000000) scale(0.100000,-0.100000)"
fill="#000000" stroke="none">
<path d="M4688 9645 c-2 -2 -37 -7 -78 -10 -41 -3 -93 -8 -115 -11 -22 -2 -56
-7 -75 -9 -140 -17 -250 -36 -405 -70 -66 -15 -131 -29 -145 -31 -14 -3 -34
-8 -45 -11 -11 -4 -24 -8 -30 -9 -70 -13 -400 -124 -535 -180 -36 -14 -78 -32
-95 -39 -110 -44 -377 -178 -470 -234 -37 -23 -69 -41 -71 -41 -5 0 -165 -103
-254 -163 -709 -481 -1309 -1209 -1643 -1997 -74 -175 -160 -412 -182 -500 -2
-8 -9 -31 -15 -50 -33 -105 -88 -341 -110 -475 -5 -33 -12 -69 -14 -81 -5 -22
-17 -112 -21 -154 -1 -14 -6 -50 -9 -80 -4 -30 -9 -77 -12 -105 -10 -87 -12
-646 -3 -740 26 -283 42 -392 93 -645 3 -14 10 -43 15 -65 9 -35 19 -77 26
-110 19 -81 86 -295 129 -414 133 -365 314 -719 527 -1032 47 -70 91 -133 98
-140 6 -8 37 -48 68 -89 530 -705 1346 -1287 2203 -1570 167 -56 367 -111 485
-135 11 -2 52 -10 90 -19 39 -8 90 -17 115 -21 25 -3 56 -8 70 -11 14 -2 41
-6 60 -9 19 -2 51 -6 70 -9 41 -6 106 -13 215 -23 169 -15 769 -7 873 11 9 2
44 7 77 10 198 24 357 54 590 112 101 26 366 107 414 127 14 5 28 11 31 12 3
0 41 15 85 32 612 240 1169 610 1625 1078 147 151 152 156 253 277 161 193
310 404 439 623 72 122 211 394 253 495 15 36 33 79 41 95 40 86 162 450 190
565 62 261 67 283 89 420 9 52 18 106 20 120 2 14 7 52 11 85 3 33 8 68 10 78
25 137 25 857 0 993 -2 10 -7 46 -10 79 -4 33 -9 71 -11 85 -2 14 -9 57 -15
95 -14 93 -40 218 -72 355 -18 75 -68 250 -101 350 -17 52 -32 97 -32 100 -1
3 -7 19 -14 35 -7 17 -21 53 -31 80 -9 28 -29 78 -44 113 -383 906 -1021 1655
-1846 2165 -198 123 -434 247 -590 312 -36 14 -78 32 -95 40 -136 61 -460 167
-643 210 -162 39 -371 79 -477 91 -22 3 -51 7 -64 9 -14 2 -54 7 -90 11 -36 3
-82 8 -101 11 -42 6 -696 13 -702 8z"/>
</g>
</svg>
