<svg xmlns="http://www.w3.org/2000/svg" viewBox="0 0 32 32"><defs><style>.cls-1{fill:#4460a0;}</style></defs><title>facebook</title><g id="Layer_2" data-name="Layer 2"><g id="Site"><g id="Icons"><g id="Color"><g id="Line-1"><path id="Facebook" class="cls-1" d="M17.09,32H1.77A1.77,1.77,0,0,1,0,30.23V1.77A1.77,1.77,0,0,1,1.77,0H30.23A1.77,1.77,0,0,1,32,1.77V30.23A1.77,1.77,0,0,1,30.23,32H22.08V19.61h4.16l.62-4.83H22.08V11.7c0-1.4.39-2.35,2.39-2.35H27V5a34.19,34.19,0,0,0-3.73-.19c-3.69,0-6.21,2.25-6.21,6.38v3.56H12.92v4.83h4.17V32Z"/></g></g></g></g></g></svg>