<svg xmlns="http://www.w3.org/2000/svg" viewBox="0 0 32.07 26.73"><defs><style>.cls-1{fill:#00aaec;}</style></defs><title>twitter</title><g id="Layer_2" data-name="Layer 2"><g id="Site"><g id="Icons"><g id="Color"><g id="Line-1"><path id="Twitter" class="cls-1" d="M32.07,3.16a12.85,12.85,0,0,1-3.78,1.06A6.73,6.73,0,0,0,31.19.49,13,13,0,0,1,27,2.13,6.49,6.49,0,0,0,22.2,0a6.67,6.67,0,0,0-6.58,6.75,6.88,6.88,0,0,0,.17,1.54A18.53,18.53,0,0,1,2.23,1.23a6.87,6.87,0,0,0-.89,3.4,6.79,6.79,0,0,0,2.93,5.62,6.46,6.46,0,0,1-3-.84v.08A6.71,6.71,0,0,0,6.57,16.1a6.27,6.27,0,0,1-1.73.24,6.39,6.39,0,0,1-1.24-.12A6.61,6.61,0,0,0,9.74,20.9a13,13,0,0,1-8.17,2.89A13.17,13.17,0,0,1,0,23.7a18.32,18.32,0,0,0,10.09,3c12.1,0,18.72-10.28,18.72-19.2,0-.29,0-.59,0-.87a13.5,13.5,0,0,0,3.28-3.49"/></g></g></g></g></g></svg>