<svg xmlns="http://www.w3.org/2000/svg" viewBox="0 0 48 47.96"><defs><style>.cls-1{fill:#01c5d3;}.cls-2{fill:#f93d7c;}.cls-3{fill:#e2af46;}.cls-4{fill:#75d7bc;}.cls-5{fill:#ca4a2e;}.cls-6{fill:#018a79;}.cls-7{fill:#786159;}.cls-8{fill:#005e66;}</style></defs><title>slack</title><g id="Layer_2" data-name="Layer 2"><g id="Site"><path class="cls-1" d="M15.43,11.54,25.58,9c.14,0,.28-.09.42-.14a.14.14,0,0,1,.21,0,8.81,8.81,0,0,1,.53,2c.45,1.82.92,3.63,1.33,5.46a2.3,2.3,0,0,1,.12.95.53.53,0,0,1-.12.22,1.77,1.77,0,0,1-.69.26l-9,2.24a2,2,0,0,1-.87.11.56.56,0,0,1-.22-.11,1.85,1.85,0,0,1-.32-.81c-.51-2.23-1.08-4.44-1.62-6.66C15.3,12.2,15.17,11.86,15.43,11.54Z"/><path class="cls-2" d="M32.68,36.45,22.11,39.06c-.26-.07-.31-.3-.37-.51-.65-2.49-1.21-5-1.83-7.49a.85.85,0,0,1,0-.37.55.55,0,0,1,.11-.22,1.67,1.67,0,0,1,.75-.3c3-.67,6-1.49,9-2.21a1.84,1.84,0,0,1,.8-.09.56.56,0,0,1,.22.11,10.62,10.62,0,0,1,.73,2.54c.41,1.67.85,3.33,1.2,5C32.79,35.84,32.92,36.16,32.68,36.45Z"/><path class="cls-3" d="M30.75,28l-.12,0a.77.77,0,0,1-.27-.51q-1.12-4.55-2.21-9.1a1.87,1.87,0,0,1-.06-.95l0-.11a1,1,0,0,1,.58-.3c2.44-.61,4.87-1.23,7.31-1.83a1.35,1.35,0,0,1,.44,0,.25.25,0,0,1,.19.13l2.56,10.54a.18.18,0,0,1-.09.2c-2.62.76-5.28,1.36-7.93,2A.6.6,0,0,1,30.75,28Z"/><path class="cls-4" d="M20.05,30.54l0,.12a.75.75,0,0,1-.44.26c-2.65.61-5.27,1.35-7.94,1.9a.18.18,0,0,1-.18-.14c-.22-1.48-.67-2.92-1-4.37C10,26.48,9.54,24.64,9.1,22.8c-.06-.24,0-.5-.33-.62,0-.15.09-.21.21-.27,2.55-.67,5.13-1.22,7.68-1.89a1.49,1.49,0,0,1,.73-.06l.15,0a1.39,1.39,0,0,1,.27.68c.75,2.94,1.43,5.9,2.17,8.85A1.43,1.43,0,0,1,20.05,30.54Z"/><path class="cls-5" d="M30.75,28l7-1.79a4.51,4.51,0,0,1,1.44-.29c.33.17.37.51.43.81.49,2.26,1.12,4.49,1.62,6.74a1.33,1.33,0,0,1,0,.86l0,0a1.5,1.5,0,0,1-.79.37l-6.82,1.7a1.1,1.1,0,0,1-.86,0,.23.23,0,0,1-.11,0c-.24-1.63-.75-3.19-1.08-4.8C31.34,30.43,30.9,29.25,30.75,28Z"/><path class="cls-6" d="M17.39,20a50.74,50.74,0,0,1-5.11,1.33,20.47,20.47,0,0,1-3.36.75,1.08,1.08,0,0,1-.34-.64C8,19.05,7.43,16.67,6.85,14.3a1,1,0,0,1,0-.65v0a1.38,1.38,0,0,1,.78-.39c2.31-.6,4.64-1.13,7-1.7a1.1,1.1,0,0,1,.72,0l.11,0c.33,2,1,4,1.41,6C17,18.35,17.21,19.16,17.39,20Z"/><path class="cls-7" d="M11.59,32.74c2.08-.66,4.22-1.09,6.34-1.62.69-.17,1.39-.31,2.08-.46l2.1,8.4a.1.1,0,0,1,0,.08,1,1,0,0,1-.59.29c-2.41.62-4.84,1.19-7.26,1.78a1.24,1.24,0,0,1-.59,0l-.12,0a1,1,0,0,1-.32-.65c-.5-2.3-1.16-4.57-1.65-6.87C11.5,33.35,11.36,33,11.59,32.74Z"/><path class="cls-8" d="M36.53,15.23q-4.18,1.15-8.42,2.09c-.66-2.8-1.43-5.58-2-8.41.13-.29.42-.33.67-.39,2.32-.58,4.63-1.2,7-1.71a1.77,1.77,0,0,1,.73,0l.11,0a1.31,1.31,0,0,1,.33.73C35.44,9.75,36,12,36.53,14.16,36.62,14.51,36.79,14.88,36.53,15.23Z"/><path class="cls-1" d="M6.86,13.65l2.07,8.4-.15.13c-1.1.27-2.2.55-3.3.8A4.42,4.42,0,0,1,.12,19.76a4.45,4.45,0,0,1,3.3-5.26C4.56,14.2,5.71,13.93,6.86,13.65Z"/><path class="cls-4" d="M13.66,41.22c1.88-.65,3.85-1,5.77-1.48a17.1,17.1,0,0,1,2.66-.61c.28,1.15.57,2.29.83,3.45a4.32,4.32,0,0,1-3,5.21,4.27,4.27,0,0,1-5.25-2.63A19.35,19.35,0,0,1,13.66,41.22Z"/><path class="cls-3" d="M34.49,6.76,27,8.68l-.86.23-.12,0c-.26-1.13-.52-2.25-.77-3.38A4.45,4.45,0,0,1,28.4.12a4.46,4.46,0,0,1,5.33,3.33C34,4.55,34.24,5.66,34.49,6.76Z"/><path class="cls-2" d="M41.28,34.36l-1.93-7.78c-.05-.21-.12-.43-.17-.64a.3.3,0,0,0,0-.11l3.09-.73a4.39,4.39,0,1,1,2.14,8.5C43.39,33.86,42.33,34.1,41.28,34.36Z"/><path class="cls-4" d="M15.32,11.5,8.21,13.3c-.45.11-.9.21-1.36.31-.21-.91-.44-1.82-.62-2.74A4.35,4.35,0,0,1,14.73,9C15,9.82,15.13,10.66,15.32,11.5Z"/><path class="cls-3" d="M32.79,36.49l8.48-2.09c.21.89.44,1.77.62,2.66A4.36,4.36,0,0,1,33.38,39C33.16,38.17,33,37.33,32.79,36.49Z"/><path class="cls-2" d="M11.59,32.74q.84,3.54,1.67,7.07c.11.45.19.91.28,1.36-1.41.31-2.77,1-4.27.65a4.38,4.38,0,0,1-3.58-4.08,4.43,4.43,0,0,1,3.27-4.42c.83-.23,1.67-.43,2.51-.64Z"/><path class="cls-1" d="M36.53,15.23q-.93-3.92-1.85-7.85c0-.19-.05-.38-.08-.58a10.07,10.07,0,0,1,3.76-.67A4.38,4.38,0,0,1,42.27,10a4.45,4.45,0,0,1-3.2,4.68c-.8.24-1.62.42-2.43.63Z"/></g></g></svg>