<?xml version="1.0" encoding="utf-8"?>
<!-- Generator: Adobe Illustrator 21.0.0, SVG Export Plug-In . SVG Version: 6.00 Build 0)  -->
<svg version="1.1" id="Layer_1" xmlns="http://www.w3.org/2000/svg" xmlns:xlink="http://www.w3.org/1999/xlink" x="0px" y="0px"
	 viewBox="0 0 176 40" style="enable-background:new 0 0 176 40;" xml:space="preserve">
<style type="text/css">
	.st0{fill-rule:evenodd;clip-rule:evenodd;fill:#FFFFFF;}
</style>
<g>
	<g>
		<path class="st0" d="M71.4,31.3c1-0.9,1.7-0.9,2.2,0c0.4-0.3,0.7-0.7,1.3-0.7c0.5,0,0.9,0.2,0.9,0.8c0.1,0.9,0.1,1.8,0.1,2.7
			c0,0.3-0.2,0.1-0.4,0.2c-0.2,0-0.4,0-0.3-0.3c0-0.5,0-1.1,0-1.6c0-0.2,0-0.3,0-0.5c0-0.5-0.2-0.7-0.7-0.7c-0.5,0-0.9,0.3-0.9,0.8
			c0,0.7,0,1.4,0,2.1c0,0.2,0,0.3-0.2,0.3c-0.2,0-0.5,0.1-0.5-0.3c0-0.7,0-1.4,0-2.1c0-0.4-0.2-0.7-0.7-0.7c-0.5,0-0.9,0.4-0.9,0.8
			c0,0.7,0,1.3,0.1,2c0,0.2,0,0.4-0.3,0.4c-0.2,0-0.4,0-0.4-0.4c0-0.7,0-1.5,0-2.2c0-0.2,0-0.4-0.1-0.5c-0.1-0.1-0.4-0.2-0.2-0.4
			c0.1-0.2,0.4-0.2,0.6-0.2c0.2,0,0.3,0.2,0.3,0.4C71.4,31.1,71.4,31.2,71.4,31.3z"/>
		<path class="st0" d="M146.7,34.2c-0.4,0.2-0.8,0.4-1.1-0.1c-0.1-0.2-0.2,0-0.2,0c-1.3,0.7-2.3,0.1-2.3-1.4c0-1.3,0.9-2.3,2.1-2.1
			c0.1,0,0.3,0.1,0.3-0.2c0-0.5,0.1-1-0.3-1.3c-0.2-0.2,0-0.2,0.1-0.2c0.5-0.3,0.9-0.1,0.9,0.5c0,0.6-0.1,1.1-0.1,1.7
			c0,0.8,0,1.6,0,2.3C146.1,33.8,146.2,34.1,146.7,34.2z M145.4,32.4C145.4,32.4,145.4,32.4,145.4,32.4c0-0.3,0-0.7,0-1
			c0-0.1,0-0.3-0.1-0.3c-0.4-0.1-0.7-0.2-1.1,0.1c-0.7,0.5-0.7,2.1,0,2.6c0.3,0.2,0.6,0.2,1,0.1c0.4-0.1,0.3-0.4,0.3-0.7
			C145.4,32.9,145.4,32.7,145.4,32.4z"/>
		<path class="st0" d="M101.6,33.6c0-0.7,0-1.3,0-2c0-0.2,0-0.3-0.1-0.5c0-0.1-0.4-0.2-0.2-0.4c0.2-0.2,0.6-0.3,0.8,0
			c0.2,0.2,0.2,0.2,0.4,0.1c0.8-0.5,1.7-0.1,2,0.8c0.4,1.2-0.2,2.5-1.2,2.7c-0.1,0-0.3,0.1-0.4,0c-0.6-0.2-0.6,0.1-0.6,0.6
			c0,0.2,0,0.4,0,0.7c0,0.2,0.1,0.5-0.3,0.5c-0.4,0-0.4-0.2-0.4-0.5C101.7,35,101.6,34.3,101.6,33.6
			C101.6,33.6,101.6,33.6,101.6,33.6z M102.4,32.6C102.3,32.6,102.3,32.6,102.4,32.6c0,0.2-0.1,0.5,0,0.7c0,0.2-0.2,0.5,0.2,0.7
			c0.3,0.1,0.7,0.2,1-0.1c0.1-0.1,0.2-0.2,0.3-0.3c0.3-0.6,0.3-1.3,0-1.9c0-0.1-0.1-0.1-0.1-0.2c-0.3-0.3-0.6-0.4-1.1-0.3
			c-0.4,0.1-0.3,0.5-0.3,0.7C102.3,32.1,102.4,32.3,102.4,32.6z"/>
		<path class="st0" d="M126.6,34.2c-0.8,0.4-1,0.3-1.3-0.5c-0.3,0.3-0.6,0.6-1,0.7c-0.7,0.1-1.2-0.2-1.2-0.9c0-0.7,0.1-1.4-0.1-2
			c0-0.1-0.1-0.2-0.1-0.3c0-0.1-0.3-0.2-0.2-0.3c0.2-0.2,0.4-0.2,0.7-0.1c0.2,0,0.3,0.2,0.3,0.4c0,0.7,0,1.3,0,2
			c0,0.3,0,0.7,0.4,0.8c0.4,0.1,0.8,0,1.1-0.3c0,0,0.1-0.1,0.1-0.2c-0.1-0.8,0.3-1.6-0.3-2.4c-0.1-0.1,0-0.2,0.1-0.2
			c0.4-0.3,0.8-0.1,0.9,0.4c0,0.7,0,1.5,0,2.2C126,33.9,126.1,33.9,126.6,34.2z"/>
		<path class="st0" d="M147.1,30.9c0.3-0.2,0.6-0.3,0.9-0.2c0.3,0.1,0.2,0.5,0.2,0.7c0,0.6,0,1.3,0,1.9c0,0.4,0.2,0.6,0.6,0.5
			c0.4,0,0.9-0.1,0.9-0.6c0.1-0.6,0-1.2,0-1.7c0-0.1-0.1-0.2-0.1-0.3c0-0.1-0.3-0.2-0.2-0.3c0.2-0.2,0.4-0.1,0.6-0.1
			c0.2,0,0.3,0.1,0.3,0.3c0,0.4,0,0.9,0,1.3c0,0.3,0,0.7,0,1c0,0.4,0.1,0.8,0.6,0.9c-0.7,0.5-1,0.3-1.3-0.4c-0.3,0.3-0.6,0.6-1,0.7
			c-0.7,0.2-1.2-0.2-1.2-0.9c0-0.5,0-1,0-1.5C147.4,31.5,147.4,31.1,147.1,30.9z"/>
		<path class="st0" d="M81.6,31.3c0.3-0.2,0.4-0.4,0.7-0.5c0.8-0.4,1.5,0,1.5,0.9c0,0.8,0,1.6,0,2.3c0,0.2,0,0.3-0.3,0.3
			c-0.2,0-0.4,0.1-0.4-0.2c0-0.3,0-0.6,0-0.9c0-0.4,0-0.8,0-1.2c0-0.6-0.2-0.8-0.7-0.8c-0.6,0-0.9,0.4-0.9,0.9c0,0.6,0,1.2,0,1.8
			c0,0.2,0.1,0.4-0.3,0.4c-0.3,0-0.4-0.1-0.4-0.4c0-0.7,0-1.5,0-2.2c0-0.2,0-0.3-0.1-0.5c0-0.1-0.5-0.3-0.1-0.5
			c0.4-0.2,0.7-0.1,0.8,0.3C81.6,31.1,81.6,31.2,81.6,31.3z"/>
		<path class="st0" d="M168.5,31.3c0.3-0.3,0.7-0.6,1.1-0.6c0.6,0,1.1,0.3,1.1,0.9c0,0.8,0,1.7,0,2.5c0,0.2-0.1,0.2-0.3,0.2
			c-0.2,0-0.4,0.1-0.4-0.3c0-0.5,0-1,0-1.4c0-0.2,0-0.4,0-0.6c0-0.7-0.2-0.9-0.7-0.9c-0.6,0-0.9,0.4-0.9,1c0,0.6,0,1.2,0.1,1.8
			c0,0.2,0,0.4-0.3,0.4c-0.2,0-0.4,0-0.4-0.3c0-0.8,0-1.6,0-2.3c0-0.2,0-0.5-0.2-0.7c-0.2-0.2-0.1-0.2,0.1-0.3
			C168.1,30.5,168.4,30.6,168.5,31.3z"/>
		<path class="st0" d="M91.8,31.3c0.3-0.3,0.7-0.6,1.1-0.6c0.6,0,1.1,0.3,1.1,0.9c0,0.8,0,1.7,0,2.5c0,0.2-0.1,0.2-0.3,0.2
			c-0.2,0-0.4,0.1-0.4-0.3c0-0.5,0-1,0-1.5c0-0.2,0-0.4,0-0.6c0-0.7-0.2-0.9-0.7-0.9c-0.6,0-0.9,0.4-0.9,1c0,0.6,0,1.2,0.1,1.8
			c0,0.3,0,0.4-0.3,0.4c-0.2,0-0.4,0-0.4-0.3c0-0.8,0-1.6,0-2.3c0-0.2,0-0.5-0.2-0.7c-0.2-0.2-0.1-0.2,0.1-0.3
			C91.4,30.5,91.6,30.7,91.8,31.3z"/>
		<path class="st0" d="M110.1,31.3c0.4-0.3,0.7-0.6,1.1-0.6c0.6,0,1.1,0.3,1.1,0.9c0,0.8,0,1.7,0,2.5c0,0.2-0.1,0.2-0.3,0.2
			c-0.2,0-0.4,0.1-0.4-0.3c0-0.5,0-1,0-1.4c0-0.2,0-0.4,0-0.6c0-0.7-0.2-0.9-0.7-0.9c-0.6,0-0.9,0.4-0.9,1c0,0.6,0,1.2,0.1,1.8
			c0,0.2,0,0.4-0.3,0.4c-0.2,0-0.4,0-0.4-0.3c0-0.8,0-1.6,0-2.3c0-0.2,0-0.5-0.2-0.7c-0.2-0.2-0.1-0.3,0.1-0.3
			C109.7,30.6,110,30.5,110.1,31.3z"/>
		<path class="st0" d="M166.8,32.4c0,1.4-1.1,2.3-2.3,1.9c-0.9-0.3-1.3-1.8-0.8-2.8c0.4-0.7,1.2-1.1,2-0.9
			C166.3,30.9,166.8,31.5,166.8,32.4z M166,32.7c0-0.5-0.1-1-0.4-1.4c-0.4-0.5-0.9-0.4-1.2,0.1c-0.3,0.6-0.2,1.8,0.3,2.4
			c0.4,0.4,0.9,0.4,1.2-0.1C166,33.4,166.1,33,166,32.7z"/>
		<path class="st0" d="M69.7,32.4c0,1.4-1.2,2.3-2.3,1.9c-0.9-0.3-1.3-1.8-0.8-2.8c0.4-0.7,1.2-1.1,2-0.9
			C69.3,30.9,69.7,31.5,69.7,32.4z M69,32.8c0-0.7-0.2-1.2-0.5-1.5c-0.4-0.5-0.9-0.4-1.2,0.1c-0.3,0.6-0.2,1.9,0.3,2.4
			c0.4,0.4,0.9,0.4,1.2-0.1C68.9,33.4,69,33,69,32.8z"/>
		<path class="st0" d="M122.1,32.4c0,1.4-1.1,2.3-2.3,1.9c-0.9-0.3-1.3-1.8-0.8-2.8c0.4-0.7,1.2-1.1,2-0.9
			C121.6,30.9,122.1,31.5,122.1,32.4z M121.3,32.6c0-0.5-0.1-1-0.5-1.3c-0.4-0.4-0.9-0.4-1.2,0.2c-0.3,0.6-0.2,1.8,0.3,2.4
			c0.4,0.4,0.9,0.4,1.2-0.1C121.3,33.3,121.4,33,121.3,32.6z"/>
		<path class="st0" d="M100.5,32.4c0,1.4-1.1,2.3-2.3,1.9c-0.9-0.3-1.3-1.8-0.8-2.8c0.4-0.7,1.2-1.1,2-0.9
			C100.1,30.8,100.5,31.5,100.5,32.4z M99.8,32.7c0-0.5-0.1-1-0.4-1.4c-0.4-0.5-1-0.4-1.3,0.1c-0.3,0.6-0.2,1.8,0.3,2.3
			c0.4,0.4,0.9,0.4,1.2-0.1C99.7,33.4,99.8,33,99.8,32.7z"/>
		<path class="st0" d="M80.3,34.1c-0.8,0.5-1,0.4-1.4-0.3c-0.2,0.3-0.6,0.6-1,0.6c-0.4,0-0.9-0.3-1-0.6c-0.1-0.4,0-0.9,0.4-1.2
			c0.4-0.2,0.8-0.3,1.2-0.2c0.3,0,0.4-0.1,0.3-0.3c0-0.2,0-0.4-0.1-0.7c-0.1-0.3-0.2-0.4-0.5-0.5c-0.3,0-0.5,0.1-0.6,0.4
			c0,0.2-0.1,0.3-0.3,0.3c-0.1,0-0.2,0-0.3-0.2c-0.1-0.2,0-0.3,0.1-0.5c0.5-0.4,1.1-0.4,1.7-0.2c0.5,0.1,0.7,0.6,0.7,1.1
			c0,0.5,0,1,0,1.5C79.6,33.7,79.7,34.1,80.3,34.1z M78.9,33.1c-0.1-0.1,0.2-0.4-0.2-0.5c-0.5,0-1.2,0.4-1.2,0.7
			c0,0.4,0.2,0.5,0.6,0.6C78.6,33.9,78.9,33.7,78.9,33.1z"/>
		<path class="st0" d="M90.3,34.1c-0.7,0.5-1,0.4-1.3-0.3c-0.2,0.2-0.4,0.4-0.7,0.5c-0.5,0.2-1,0-1.2-0.5c-0.2-0.4-0.1-1,0.4-1.2
			c0.4-0.2,0.8-0.3,1.2-0.2c0.4,0.1,0.5-0.1,0.4-0.4c0-0.2,0-0.4-0.1-0.6c-0.1-0.3-0.3-0.4-0.6-0.4c-0.3,0-0.5,0.1-0.6,0.3
			c-0.1,0.2-0.1,0.3-0.3,0.3c-0.1,0-0.2-0.1-0.3-0.2c0-0.2,0-0.3,0.1-0.5c0.5-0.4,1.1-0.4,1.7-0.2c0.5,0.2,0.6,0.6,0.6,1.1
			c0,0.5,0,0.9,0,1.4C89.6,33.6,89.6,34.1,90.3,34.1z M88.9,33.1c-0.1-0.1,0.2-0.4-0.2-0.5c-0.5-0.1-1.2,0.3-1.2,0.7
			c0,0.4,0.2,0.6,0.6,0.6C88.6,33.9,88.9,33.7,88.9,33.1z"/>
		<path class="st0" d="M158.1,34.2c-0.7,0.4-1,0.3-1.3-0.3c-0.2,0.2-0.4,0.5-0.7,0.5c-0.5,0.1-1-0.1-1.2-0.5c-0.2-0.4,0-1,0.4-1.2
			c0.4-0.2,0.8-0.3,1.2-0.2c0.3,0,0.4,0,0.4-0.3c0-0.2,0-0.5-0.1-0.7c-0.1-0.3-0.3-0.4-0.6-0.4c-0.3,0-0.5,0.1-0.5,0.4
			c0,0.2-0.1,0.3-0.3,0.3c-0.1,0-0.2,0-0.3-0.2c-0.1-0.2,0-0.3,0.1-0.5c0.5-0.4,1.1-0.4,1.7-0.2c0.5,0.1,0.7,0.6,0.7,1.1
			c0,0.5,0,0.9,0,1.4C157.5,33.6,157.5,34,158.1,34.2z M156.8,33c0-0.1,0.1-0.4-0.2-0.4c-0.5,0-1.2,0.4-1.2,0.7
			c0,0.3,0.2,0.5,0.6,0.5C156.5,33.9,156.8,33.6,156.8,33z"/>
		<path class="st0" d="M108.4,33.3c-0.1,0.7-0.5,1-1.2,1.2c-0.6,0.1-1.3-0.2-1.6-0.8c-0.3-0.8-0.3-1.7,0.2-2.4
			c0.3-0.5,1-0.7,1.6-0.5c0.5,0.2,0.8,0.6,0.8,1.2c0.1,0.4-0.1,0.5-0.4,0.5c-0.5,0-1,0-1.4,0c-0.3,0-0.3,0.1-0.3,0.3
			c0.1,0.5,0.2,0.9,0.6,1.1C107.4,34,107.9,33.8,108.4,33.3z M106.8,32C106.8,32,106.8,32,106.8,32c0.1,0,0.2,0,0.3,0
			c0.2,0,0.4,0.1,0.5-0.1c0.1-0.2-0.1-0.4-0.2-0.6c0-0.1-0.1-0.1-0.1-0.1c-0.3-0.2-0.5-0.2-0.8,0c-0.3,0.2-0.4,0.5-0.4,0.8
			C106.2,32.2,106.6,32,106.8,32C106.8,32,106.8,32,106.8,32z"/>
		<path class="st0" d="M136.4,33.3c-0.1,0.7-0.5,1.1-1.2,1.2c-0.6,0.1-1.3-0.3-1.5-0.9c-0.3-0.8-0.2-1.6,0.2-2.3
			c0.3-0.5,1-0.8,1.6-0.6c0.5,0.1,0.8,0.6,0.9,1.2c0.1,0.4-0.1,0.5-0.5,0.5c-0.5,0-0.9,0-1.4,0c-0.3,0-0.4,0.1-0.3,0.4
			c0.1,0.5,0.2,0.9,0.6,1.1c0.5,0.2,0.9,0.1,1.3-0.2C136.2,33.5,136.3,33.4,136.4,33.3z M134.9,32C134.9,32,134.9,32,134.9,32
			c0.1,0,0.2,0,0.3,0c0.2,0,0.4,0.1,0.5-0.1c0.1-0.2-0.1-0.4-0.1-0.5c0,0,0-0.1-0.1-0.1c-0.2-0.3-0.6-0.3-0.9-0.2
			c-0.3,0.2-0.5,0.5-0.4,0.8C134.3,32.2,134.7,32,134.9,32C134.9,32,134.9,32,134.9,32z"/>
		<path class="st0" d="M142.3,33.3c0,0.7-0.7,1.3-1.5,1.2c-1-0.1-1.5-0.9-1.3-2.2c0.1-1.1,0.8-1.7,1.8-1.5c0.6,0.1,1.2,0.8,1,1.5
			c-0.1,0.3-0.3,0.2-0.4,0.2c-0.5,0-1,0-1.4,0c-0.3,0-0.4,0.1-0.3,0.4c0.1,0.5,0.2,0.9,0.7,1.1C141.4,34,141.9,33.8,142.3,33.3z
			 M140.8,32C140.8,32,140.8,32,140.8,32c0.1,0,0.3,0,0.4,0c0.4,0,0.5-0.1,0.3-0.5c-0.1-0.1-0.1-0.2-0.3-0.3c-0.2-0.2-0.5-0.2-0.7,0
			c-0.3,0.2-0.4,0.5-0.4,0.8C140.2,32.2,140.6,32,140.8,32C140.8,32,140.8,32,140.8,32z"/>
		<path class="st0" d="M115.7,33.5c0.4,0.4,0.8,0.6,1.3,0.4c0.2-0.1,0.3-0.2,0.4-0.4c0-0.2-0.1-0.4-0.2-0.5c-0.3-0.2-0.7-0.4-1-0.6
			c-0.4-0.2-0.6-0.6-0.5-1.1c0.1-0.5,0.5-0.8,1-0.8c0.3,0,0.6,0,1,0.1c0.2,0.1,0.3,0.2,0.3,0.4c0,0.1,0,0.3-0.1,0.4
			c-0.2,0.1-0.2-0.2-0.3-0.3c-0.2-0.2-0.4-0.3-0.7-0.3c-0.2,0-0.4,0.1-0.5,0.3c-0.1,0.3,0,0.4,0.2,0.6c0.3,0.2,0.7,0.3,1,0.5
			c0.4,0.2,0.7,0.6,0.6,1.1c-0.1,0.5-0.5,0.8-0.9,0.9c-0.5,0.1-1,0-1.3-0.4C115.7,33.9,115.6,33.7,115.7,33.5z"/>
		<path class="st0" d="M132.9,33.3c0,1-1.3,1.5-2.2,0.9c-0.7-0.4-0.9-1.7-0.5-2.6c0.4-0.8,1.3-1.2,2.1-0.9c0.2,0.1,0.4,0.1,0.4,0.3
			c0.1,0.2,0.1,0.4-0.1,0.5c-0.2,0.1-0.4,0.1-0.5-0.1c-0.3-0.5-0.9-0.5-1.2,0c-0.4,0.5-0.4,1.5-0.1,2.1c0.3,0.4,0.8,0.5,1.3,0.3
			C132.5,33.7,132.7,33.5,132.9,33.3z"/>
		<path class="st0" d="M154.3,33.3c0.1,0.4-0.2,0.6-0.4,0.8c-1,0.7-2.3,0.2-2.4-1c-0.1-0.5,0-1,0.2-1.5c0.4-0.8,1.2-1.2,2.1-0.9
			c0.2,0.1,0.4,0.1,0.4,0.3c0.1,0.2,0.1,0.4-0.1,0.5c-0.2,0.1-0.3,0.1-0.5-0.1c-0.3-0.5-0.9-0.5-1.3,0c-0.4,0.6-0.4,1.3-0.1,1.9
			c0.3,0.5,0.8,0.7,1.4,0.4C153.9,33.7,154,33.5,154.3,33.3z"/>
		<path class="st0" d="M160.8,33.7c-0.1,0.5-0.5,0.8-1.1,0.7c-0.5,0-0.8-0.3-0.8-0.9c0-0.6,0-1.3,0-1.9c0-0.2,0-0.3-0.1-0.5
			c-0.1-0.2-0.5-0.2-0.3-0.4c0.3-0.2,0.5-0.5,0.8-0.7c0.1,0,0.3,0,0.2,0.2c-0.2,0.5,0.2,0.4,0.5,0.4c0.2,0,0.4,0,0.6,0
			c0,0.5-0.4,0.5-0.7,0.4c-0.3,0-0.4,0.1-0.4,0.4c0,0.5,0,0.9,0,1.4c0,0.8,0.2,1,1,0.8C160.6,33.7,160.7,33.7,160.8,33.7z"/>
		<path class="st0" d="M64.5,31.3c0.2-0.2,0.4-0.4,0.6-0.5c0.2-0.2,0.5-0.2,0.7-0.1c0.2,0.1,0.3,0.3,0.2,0.5
			c-0.1,0.2-0.3,0.2-0.5,0.2c-0.5-0.2-0.7-0.2-0.9,0.4c-0.2,0.7-0.2,1.4-0.1,2.2c0,0.4-0.1,0.4-0.4,0.4c-0.3,0-0.3-0.1-0.3-0.3
			c0-0.7,0-1.4,0-2.1c0-0.3,0-0.6-0.3-0.9c-0.2-0.1,0-0.2,0.1-0.2C64.1,30.5,64.4,30.6,64.5,31.3z"/>
		<path class="st0" d="M128.1,31.3c0.2-0.2,0.4-0.4,0.6-0.6c0.2-0.2,0.5-0.2,0.7-0.1c0.2,0.1,0.3,0.3,0.2,0.6
			c-0.1,0.2-0.3,0.3-0.5,0.1c-0.5-0.4-0.6,0-0.8,0.3c-0.2,0.5-0.2,1.1-0.2,1.6c0,0.2,0,0.4,0,0.6c0,0.2,0.2,0.5-0.3,0.5
			c-0.5,0-0.4-0.2-0.4-0.5c0-0.7,0-1.4,0-2.1c0-0.2,0-0.3-0.1-0.5c0-0.2-0.4-0.2-0.2-0.4c0.2-0.2,0.5-0.2,0.7-0.1
			c0.2,0.1,0.2,0.3,0.2,0.5C128.1,31.2,128.1,31.2,128.1,31.3z"/>
		<path class="st0" d="M86,32.6c0,0.5,0,1,0,1.4c0,0.3-0.1,0.3-0.3,0.3c-0.2,0-0.4,0.1-0.4-0.3c0-0.8,0-1.6,0-2.4
			c0-0.2,0-0.4-0.1-0.5C85.1,31,84.9,31,85,30.8c0.2-0.2,0.4-0.2,0.7-0.2c0.2,0,0.3,0.2,0.3,0.3c0,0.4,0,0.9,0,1.3
			C86,32.4,86,32.5,86,32.6C86,32.6,86,32.6,86,32.6z"/>
		<path class="st0" d="M162.3,32.7c0,0.5,0,0.9,0,1.4c0,0.3-0.1,0.3-0.3,0.3c-0.2,0-0.4,0-0.4-0.3c0-0.6,0-1.2,0-1.8
			c0-0.4,0.1-0.9-0.3-1.2c-0.1-0.1-0.1-0.1,0-0.2c0.2-0.1,0.4-0.2,0.7-0.1c0.2,0,0.3,0.2,0.3,0.4C162.4,31.6,162.3,32.1,162.3,32.7
			C162.3,32.7,162.3,32.7,162.3,32.7z"/>
		<path class="st0" d="M85.6,29.2c0.2,0,0.4,0.1,0.4,0.4c0,0.2-0.1,0.4-0.4,0.4c-0.2,0-0.4-0.1-0.4-0.4
			C85.2,29.4,85.4,29.3,85.6,29.2z"/>
		<path class="st0" d="M161.9,29.2c0.2,0,0.4,0.1,0.4,0.4c0,0.2-0.1,0.4-0.4,0.4c-0.2,0-0.4-0.1-0.4-0.4
			C161.5,29.4,161.7,29.3,161.9,29.2z"/>
		<path class="st0" d="M137.8,21.5c0.3,1.3,0.1,2.4-0.6,3.4c-1.3,1.9-3.3,2.9-5.5,3.3c-2.5,0.5-4.9,0.2-7-1.3
			c-1.9-1.3-2.9-3.3-3.4-5.5c-0.8-3.6-0.4-7.2,1.3-10.5c1.2-2.3,3-4,5.6-4.5c2.4-0.5,4.7-0.2,6.6,1.3c1.4,1.1,2.2,2.6,2.5,4.3
			c0.3,1.2,0.3,2.4,0.3,3.6c0,0.3-0.1,0.4-0.4,0.5c-0.6,0.2-1.1,0.3-1.7,0.3c-3.3,0-6.7,0-10-0.1c-0.5,0-0.6,0.1-0.6,0.6
			c0,1.3,0,2.6,0.4,3.8c1,3.6,4.4,5.2,7.8,4.2c1.9-0.5,3.4-1.6,4.6-3.2C137.7,21.7,137.7,21.7,137.8,21.5z M127.5,14.6
			c0,0,0-0.1,0-0.1c2,0,4,0,6,0c0.4,0,0.5-0.1,0.4-0.5c-0.1-1.5-0.6-2.9-1.5-4.1c-1.4-1.7-4.7-1.9-6.1,0.4c-0.7,1.2-1.1,2.5-1.4,3.8
			c-0.1,0.3,0,0.4,0.3,0.4C125.9,14.5,126.7,14.6,127.5,14.6z"/>
		<path class="st0" d="M150.8,26.4c-0.6,0.4-1,0.8-1.6,1.2c-2.7,1.6-5.9,0.6-7.2-2.2c-1.3-2.9-1-7.4,1.7-10.1c1.4-1.3,3-1.9,4.9-1.7
			c0.5,0,1.1,0.1,1.6,0.3c0.2,0,0.3,0.1,0.3-0.2c-0.1-1.5,0.1-3.1-0.1-4.6c-0.1-0.6-0.4-1.1-1-1.3c-0.3-0.1-0.4-0.5-0.1-0.7
			c0.9-0.5,1.9-0.8,2.9-0.5c0.8,0.3,1,1,1,1.7c0.1,1.5,0,3.1-0.1,4.6c-0.1,2.4-0.1,4.9-0.1,7.3c0,1.6,0,3.2,0.2,4.7
			c0.1,1.3,0.6,1.9,1.9,2.1c0.1,0,0.4,0,0.4,0.3c0,0.2-0.1,0.3-0.3,0.4c-0.8,0.4-1.6,0.7-2.5,0.5c-0.9-0.1-1.5-0.6-1.8-1.5
			C150.9,26.6,150.8,26.5,150.8,26.4z M150.5,19C150.6,19,150.6,19,150.5,19c0.1-1.1,0-2.1,0.1-3.2c0-0.4-0.1-0.5-0.5-0.6
			c-0.8-0.2-1.6-0.3-2.5-0.3c-1.2,0-2.2,0.6-2.8,1.6c-1.1,2.1-1.3,4.4-0.7,6.7c0.8,2.8,3.6,3.9,5.9,2.4c0.2-0.1,0.3-0.3,0.3-0.6
			C150.5,23.1,150.5,21.1,150.5,19z"/>
		<path class="st0" d="M167.3,25.1c-0.6,0.8-1.2,1.5-2,2c-1.2,0.8-2.5,1.2-4,1.1c-1.7-0.2-2.9-1.6-2.9-3.3c0-2,0.1-3.9,0.1-5.9
			c0-1-0.1-2-0.4-3c-0.2-0.5-0.4-1-0.9-1.3c-0.3-0.1-0.3-0.5,0-0.6c0.8-0.4,1.7-0.7,2.7-0.6c0.7,0.1,1,0.5,1.1,1.2
			c0.2,1.6,0.1,3.2,0,4.8c0,1.6-0.1,3.2,0.2,4.8c0.2,1.3,1,1.8,2.4,1.7c1.2-0.1,2.3-0.6,3.1-1.4c0.3-0.3,0.5-0.6,0.5-1
			c0-1.8,0-3.6,0-5.5c0-0.7-0.1-1.5-0.2-2.2c-0.1-0.5-0.4-0.9-0.9-1.2c-0.4-0.2-0.4-0.5,0-0.7c0.7-0.3,1.4-0.6,2.2-0.5
			c0.9,0.1,1.3,0.4,1.4,1.4c0.1,0.7,0.1,1.5,0.1,2.2c0,2.3,0,4.5,0,6.8c0,0.7,0.1,1.4,0.3,2c0.3,0.7,0.8,1.1,1.5,1.1
			c0.2,0,0.4,0,0.5,0.3c0,0.3-0.1,0.4-0.4,0.5c-0.7,0.3-1.3,0.5-2.1,0.5c-1,0.1-1.9-0.6-2.2-1.6C167.4,26.2,167.4,25.7,167.3,25.1z"
			/>
		<path class="st0" d="M99.1,16.8c-0.1,3.8-1.3,7.2-4.4,9.6c-3,2.3-6.4,2.7-9.9,1.3c-1.6-0.6-2.7-1.8-3.5-3.3
			c-2.2-4-2.5-8.1-0.6-12.3c1.8-4,5.8-6.2,10.2-5.8c3.6,0.3,6.5,2.8,7.6,6.5c0.2,0.6,0.3,1.2,0.4,1.7C99.1,15.3,99.1,16.1,99.1,16.8
			z M94.9,18c0-0.9-0.1-1.9-0.3-3c-0.4-2-1.3-3.8-2.8-5.3c-1.9-1.8-4.5-1.8-6.1,0c-0.7,0.7-1.1,1.6-1.4,2.5c-0.9,2.7-0.7,5.5,0,8.2
			c0.4,1.7,1.2,3.3,2.5,4.6c1.9,1.9,4.6,1.7,6.3-0.3c0.4-0.5,0.7-1,1-1.6C94.7,21.5,94.9,19.9,94.9,18z"/>
		<path class="st0" d="M103.6,22.6c0.2,0.5,0.4,0.9,0.7,1.2c2.1,1.8,4.5,2.7,7.3,2c1.5-0.4,2.4-1.7,2.2-3.1c-0.1-0.6-0.4-1-0.9-1.4
			c-0.9-0.8-1.9-1.2-2.9-1.7c-1.6-0.8-3.2-1.5-4.6-2.6c-2.9-2.2-3.1-6-0.5-8.6c1.4-1.3,3-2,4.9-2.1c2-0.1,4,0.2,5.8,1.2
			c0.4,0.2,0.6,0.4,0.6,0.8c0.1,1.1,0.1,2.3-0.5,3.3c-0.1,0.2-0.2,0.5-0.5,0.4c-0.3-0.1-0.6-0.1-0.7-0.5c-1-2.5-3.3-3.7-5.9-3.1
			c-1.1,0.3-1.9,0.9-2.2,2c-0.3,1.2,0.2,2.2,1.2,2.9c1.1,0.8,2.3,1.4,3.6,2c1.3,0.6,2.6,1.3,3.8,2.1c3.5,2.4,3.1,7.7-0.5,9.9
			c-2.9,1.8-7.1,1.6-9.7-0.4c-0.8-0.6-1.3-1.3-1.5-2.3C103.1,23.8,103.3,23.2,103.6,22.6z"/>
		<path class="st0" d="M68.6,27.9c-1.3,0-2.6,0-4,0c-0.3,0-0.3-0.2-0.2-0.4c0-2.2,0-4.4,0.1-6.6c0.1-2.8,0.1-5.6,0-8.4
			c0-1.1-0.1-2.1-0.6-3.1c-0.3-0.6-0.6-1.1-1.3-1.3c-0.3-0.1-0.3-0.7,0-0.9c1.4-0.8,2.9-1.2,4.5-0.9c0.7,0.1,1,0.6,1.1,1.3
			c0.1,0.6,0.1,1.2,0.1,1.8c-0.1,0.7-0.2,1.4-0.3,2.1c0.2-0.1,0.2-0.3,0.3-0.4C69.2,9.5,70.3,8,72,7c1.1-0.7,2.3-0.9,3.6-0.6
			c1.5,0.4,2.3,2.1,1.6,3.5c-0.5,0.9-1.6,1.4-2.6,1.1c-0.2,0-0.2-0.2-0.3-0.3c-0.6-1.4-2.2-1.5-3.3-0.7c-0.8,0.5-1.3,1.3-1.6,2.1
			c-0.9,2.1-1.3,4.3-1.3,6.5c-0.1,2.7,0,5.3,0.2,8C68.4,27,68.5,27.4,68.6,27.9z"/>
	</g>
	<g>
		<path class="st0" d="M26.2,30c0.5-0.6,1-1.1,1.5-1.6c0.9-0.9,1.9-1.8,3-2.6c3.2-2.1,6.5-2.5,10-1.1c1.7,0.7,3.3,1.6,4.9,2.3
			c1.2,0.5,2.4,1,3.8,1.1c2.3,0.1,4.2-0.8,5.6-2.6c0.4-0.5,0.7-1,1.1-1.5c0.2-0.3,0.5-0.6,1-0.7c0.3,0,0.4,0.1,0.4,0.3
			c0,0.3,0,0.6-0.2,0.9c-1.5,2.3-3.1,4.4-5.5,5.8c-3.3,1.9-6.8,2-10.3,0.6c-1.7-0.7-3.4-1.6-5.1-2.3c-1.1-0.4-2.1-0.8-3.3-0.9
			c-2.3-0.2-4,0.8-5.4,2.5c-0.4,0.5-0.8,1.1-1,1.7c0,0.1-0.1,0.2-0.1,0.3c-0.3,0.5-0.8,0.6-1.2,0.1c-0.2-0.3-0.3-0.6-0.3-1
			c0-0.4,0-0.9,0-1.3c0.1-0.6-0.1-1.2-0.3-1.8c-0.4-0.9-0.9-1.7-1.5-2.5c-0.9-1.1-2.2-1.6-3.5-1.8c-1.8-0.3-3.6-0.2-5.4-0.3
			c-3.4-0.2-6.4-1.2-8.8-3.8c-1.6-1.7-2.5-3.8-3-6.1c-0.3-1.5-0.4-3-0.3-4.5c0-0.2-0.1-0.4,0.4-0.2c0.7,0.3,0.8,0.8,0.7,1.5
			c-0.1,0.9,0.2,1.7,0.4,2.5c0.5,1.5,1.2,2.8,2.5,3.8c1.1,0.8,2.3,1.1,3.6,1.3c1.8,0.3,3.6,0.3,5.4,0.4c1.6,0.1,3.1,0.2,4.6,0.8
			c2.4,1.1,4,2.9,5.1,5.3c0.7,1.7,1.1,3.5,1.3,5.3C26.2,29.9,26.2,30,26.2,30z"/>
		<path class="st0" d="M24.8,9.6c0.1,0.4,0.3,0.8,0.4,1.3c0.2,1-0.2,1.8-0.8,2.6c-0.6,0.7-1.3,1.2-2,1.7c-0.3,0.3-0.6,0.6-0.9,0.9
			c-0.6,0.7-0.9,1.6-0.6,2.6c0,0.1,0.1,0.2,0,0.3c-0.5-0.8-0.8-1.6-0.7-2.6c0.1-1.3,0.7-2.3,1.8-3c0.5-0.3,1-0.6,1.5-1
			c1.4-0.9,1.6-1.8,0.9-3.2c0-0.1-0.1-0.1-0.1-0.2c0,0,0,0,0,0c0.4,0.2,0.8,0.4,1.3,0.4c0.6,0.1,1.2-0.1,1.7-0.5
			c0.9-0.6,1.5-1.5,2.1-2.4c-1.6,1-3.3,1.3-5.2,0.9c-1.8-0.3-3.4-1.2-4.3-3c-0.2,0.7-0.4,1.3-0.6,2c-0.5,1.6-1.3,2.8-2.9,3.4
			c-0.8,0.3-1.7,0.4-2.6,0.5c-1.2,0.1-2.3,0.1-3.4,0.4c-1.4,0.3-2.2,1.2-2.4,2.6c-0.1,0.6-0.2,1.2-0.5,1.7C6.9,12.1,8.3,8.7,12,8
			c1.1-0.2,2.2-0.3,3.3-0.4c0.6-0.1,1.3-0.1,1.9-0.3c1.5-0.4,2.3-1.4,2.3-3c0-0.3,0-0.6,0-0.9c0.2,0,0.3,0.1,0.4,0.3
			c0.2,0.2,0.5,0.5,0.7,0.8c1.1,1.5,2.4,1.8,4.2,1.3c0.9-0.2,1.6-0.7,2.4-1.1c2.2-1.2,4.4-1.3,6.7-0.6c1.2,0.4,2.1,1.1,2.7,2.2
			C37,7,37.5,7.9,38.1,8.6c1.1,1.4,2.3,1.7,4,1.1c0.6-0.2,1.2-0.5,1.9-0.6c-0.3,0.6-0.7,1.2-0.8,1.9c-0.2,1,0,1.9,0.6,2.7
			c0.5,0.6,1,1,1.6,1.4c0.6,0.4,1.3,0.8,1.9,1.3c2.4,1.7,3.2,4.1,2.3,7c-0.2,0.8-0.6,1.5-1,2.3c-0.1-0.6,0-1.1,0.2-1.7
			c0.1-0.4,0.2-0.8,0.2-1.2c0.1-1.3-0.5-2.3-1.5-3.2c-0.7-0.6-1.5-1-2.2-1.5c-0.4-0.2-0.7-0.5-1.1-0.8c-1.6-1.3-2-3-1.8-4.9
			c0.1-0.6,0.2-1.1,0.4-1.7c0.1-0.2,0.1-0.4,0.2-0.7c-1.7,0.8-3.3,1-5,0.5c-1.7-0.5-3-1.6-4-3C34,7.7,34,7.9,34,8.1
			c0,0.2,0.1,0.4,0.1,0.6c0.1,0.5,0.2,1.1,0.4,1.6c0.4,1.1,1,1.6,2.2,1.6c0.2,0,0.4,0,0.5,0c-0.4,0.6-1,0.4-1.5,0.3
			c-1.8-0.4-2.7-1.6-3.2-3.2c-0.2-0.8-0.4-1.6-0.5-2.4c0-0.1,0-0.2-0.1-0.2c-0.1-0.1-0.2,0-0.2,0.1c-0.5,0.5-1,1.1-1.5,1.6
			c-0.4,0.5-0.9,0.9-1.4,1.3c-1.1,0.8-2.3,0.9-3.5,0.4C25.2,9.6,25.1,9.5,24.8,9.6C24.9,9.5,24.8,9.5,24.8,9.6
			C24.8,9.5,24.8,9.5,24.8,9.6z"/>
		<path class="st0" d="M35.6,22.6c0.1-0.5,0.3-0.7,0.5-1c0.8-0.8,0.9-1.6,0.4-2.6c-0.3-0.7-0.7-1.4-1.1-2.2
			c-0.2-0.4-0.4-0.9-0.4-1.4c-0.2-1.1,0.2-2,1.1-2.7c-0.4,1,0,1.8,0.4,2.6c0.4,0.8,0.9,1.5,1.1,2.4c0.4,1.3,0.2,2.6-0.8,3.6
			C36.6,21.8,36.1,22.2,35.6,22.6z"/>
	</g>
</g>
</svg>
