<svg xmlns="http://www.w3.org/2000/svg" viewBox="0 0 53.69 53.69"><defs><style>.cls-1{fill:#4460a0;}</style></defs><title>facebook</title><g id="Layer_2" data-name="Layer 2"><g id="Site"><g id="Icons"><g id="Color"><g id="Line-1"><path id="Facebook" class="cls-1" d="M28.68,53.69H3a3,3,0,0,1-3-3V3A3,3,0,0,1,3,0H50.73a3,3,0,0,1,3,3V50.73a3,3,0,0,1-3,3H37V32.9h7l1-8.1H37V19.62c0-2.35.65-3.94,4-3.94h4.29V8.43a57.36,57.36,0,0,0-6.25-.32c-6.19,0-10.42,3.78-10.42,10.71v6h-7v8.1h7V53.69Z"/></g></g></g></g></g></svg>