<svg xmlns="http://www.w3.org/2000/svg" viewBox="0 0 53.81 44.84"><defs><style>.cls-1{fill:#00aaec;}</style></defs><title>twitter</title><g id="Layer_2" data-name="Layer 2"><g id="Site"><g id="Icons"><g id="Color"><g id="Line-1"><path id="Twitter" class="cls-1" d="M53.81,5.31a21.56,21.56,0,0,1-6.34,1.78A11.3,11.3,0,0,0,52.33.83a21.74,21.74,0,0,1-7,2.74A10.89,10.89,0,0,0,37.25,0a11.18,11.18,0,0,0-11,11.32,11.55,11.55,0,0,0,.28,2.58A31.08,31.08,0,0,1,3.75,2.07a11.53,11.53,0,0,0-1.49,5.7,11.4,11.4,0,0,0,4.91,9.42,10.84,10.84,0,0,1-5-1.41v.14A11.25,11.25,0,0,0,11,27a10.53,10.53,0,0,1-2.91.4A10.72,10.72,0,0,1,6,27.21a11.08,11.08,0,0,0,10.31,7.86A21.8,21.8,0,0,1,2.63,39.92,22.1,22.1,0,0,1,0,39.76a30.74,30.74,0,0,0,16.92,5.08c20.31,0,31.41-17.25,31.41-32.21,0-.49,0-1,0-1.47a22.66,22.66,0,0,0,5.51-5.86"/></g></g></g></g></g></svg>